<!-- Created with Inkscape (http://www.inkscape.org/) -->
<svg id="svg2" xmlns:rdf="http://www.w3.org/1999/02/22-rdf-syntax-ns#" xmlns="http://www.w3.org/2000/svg" height="14.111mm" width="50.041mm" version="1.1" xmlns:cc="http://creativecommons.org/ns#" xmlns:dc="http://purl.org/dc/elements/1.1/" viewBox="0 0 177.31064 50.000002">
 <metadata id="metadata7">
  <rdf:RDF>
   <cc:Work rdf:about="">
    <dc:format>image/svg+xml</dc:format>
    <dc:type rdf:resource="http://purl.org/dc/dcmitype/StillImage"/>
    <dc:title/>
   </cc:Work>
  </rdf:RDF>
 </metadata>
 <g id="layer1" transform="translate(401.4 -763.2)">
  <g id="g4141" transform="matrix(.66667 0 0 .66667 -133.8 271.07)">
   <path id="path3417" d="m-401.4 813.19s20.752 1.0705 33.132-22.227c6.9704-13.118 13.811-29.255 19.261-36.609 1.2342-1.6654 7.498-2.7995 7.9718 0.084 0.861 5.2402 2.853 31.971 2.853 31.971s9.9397-28.351 20.643-38.013c6.5244-5.8894 11.489-9.5319 24.335-10.154 26.013-1.2587 88.185 24.41 115.05 22.908 22.594-1.2631 38.971-9.0093 42.041-10.573 3.4011-1.7324-6.0662 5.4287-24.049 10.743-11.211 3.3129-30.821 6.2991-47.11 1.6856-74.003-20.959-76.293-19.698-89.169-17.163-12.746 2.5094-21.492 10.819-28.541 26.511-10.331 22.999-10.157 24.36-13.363 26.139-2.0396 1.1313-4.9509 1.2587-6.4613-2.6853-1.5303-3.9957-2.8531-30.712-2.8531-30.712-5.3464 3.3593-11.655 28.022-22.992 37.174-8.4622 6.8307-17.348 10.85-30.743 10.922z" fill-rule="evenodd"/>
   <g id="text4219" transform="matrix(.087399 0 0 .078955 -285.32 718.8)">
    <path id="path4138" d="m-249.8 818.19q-2.6367-18.164-26.074-27.832-26.953-11.426-59.18 2.6367-15.527 7.0312-28.125 25.195-11.426 17.578-16.113 39.551l-0.87891 3.5156q-7.0312 32.812 5.5664 56.25 12.891 23.438 38.086 23.438 14.648 2.0508 30.469-2.9297 32.227-9.9609 40.723-46.582l15.527-73.242zm74.707-99.609q16.113 0 24.902 11.426 9.375 11.426 5.8594 27.832l-50.391 237.3h-0.29297q-14.355 63.281-64.16 97.852-44.531 30.762-103.12 30.762-4.1016 0-8.2031-0.2929-3.8086 0.2929-7.9102 0.2929-26.953 0-64.746-0.2929-17.578 0-24.609-14.648-7.0312-14.356 2.3438-31.055l0.29297-0.5859q13.184-23.144 37.793-22.852 8.4961 0.293 71.484 0.293 57.422 0 67.969-61.523-35.449 18.457-71.191 18.457-58.301 0-90.234-43.359-32.227-43.359-19.043-104.88 12.891-61.23 63.574-104.59 50.391-43.652 108.69-43.652 36.328 0 64.453 18.75 1.1719-6.4453 6.7383-10.84 5.5664-4.3945 12.012-4.3945h37.793z"/>
    <path id="path4140" d="m85.962 785.37q-24.902 0-48.34 13.77-22.852 13.477-36.914 35.449h149.12q-4.3945-21.973-21.387-35.449-17.578-13.77-42.48-13.77zm87.012 200.39q-4.9805 11.426-15.527 18.75-10.84 7.3243-22.852 7.6172-43.066 0.293-88.184 0.293-4.3945 0-8.7891-0.293-4.3945 0.293-8.7891 0.293-62.988 0-98.438-43.359-35.449-43.359-22.559-104.59 13.184-61.523 67.09-104.88 53.906-43.359 116.89-43.359 4.3945 0 8.7891 0.29297 4.3945-0.29297 8.7891-0.29297 62.988 0 98.438 43.359 35.449 43.359 22.266 104.88v0.29296q-2.3438 11.426-12.598 19.629-10.254 7.9102-21.973 7.9102h-207.71q4.1016 22.852 21.387 36.621 17.578 14.355 43.066 14.355h96.68q16.406-0.29297 24.023 12.891 7.9102 12.891 0.58594 29.004l-0.58594 0.58594z"/>
    <path id="path4142" d="m587.84 969.36q-3.8086 18.457-19.922 31.641-15.82 13.184-34.57 13.184h-0.8789q-18.457 0-29.004-13.184-10.254-13.184-6.4453-31.641l23.73-110.45q10.254-49.512-14.355-62.988-26.074-14.062-60.938 4.9805-31.055 16.699-38.965 36.621-1.1719 2.9297-2.3438 7.0312 0.29296-0.29297-0.29297 0.29297l-26.66 124.51q-3.8086 18.457-19.922 31.641-15.82 13.184-34.277 13.184h-1.4648q-18.457 0-29.004-13.184-10.254-13.184-6.4453-31.641l45.996-216.21q2.6367-12.305 12.891-20.801 10.84-8.7891 23.145-8.7891h33.691q12.012 0 18.457 8.7891 6.7383 8.4961 4.1016 20.508v0.29297q62.402-32.52 76.172-35.156 70.02-13.77 98.73 35.449 24.902 43.066 10.547 111.62l-21.973 104.3z"/>
    <path id="path4144" d="m759.83 862.13q-7.0312 33.105 5.5664 56.543 12.891 23.145 38.086 23.145 14.648 2.3438 30.469-2.6367 31.934-9.9609 40.723-46.582l15.527-73.242q-2.9297-18.164-26.074-28.125-26.953-11.426-59.473 2.9297-15.234 6.7383-27.832 25.195-11.719 17.578-16.113 39.258l-0.87891 3.5156zm84.082-145.9q36.328 0 64.16 18.75l20.801-96.68q3.8086-18.75 20.215-32.227t35.156-13.477h1.1719q18.75 0 29.297 13.477t6.7383 32.227l-75.586 355.37q-1.7578 7.9102-8.4961 13.477-6.7383 5.2734-14.355 5.2734h-55.078q-7.9102 0-12.012-5.2734-4.3945-5.5664-2.9297-13.184l0.29297-0.29297q-36.035 18.75-72.363 18.75-58.301 0-90.234-43.359-32.227-43.359-19.336-104.59 13.184-61.523 63.867-104.88 50.391-43.359 108.69-43.359z"/>
    <path id="path4146" d="m1252.9 785.37q-24.902 0-48.34 13.77-22.852 13.477-36.914 35.449h149.12q-4.3945-21.973-21.387-35.449-17.578-13.77-42.48-13.77zm87.012 200.39q-4.9804 11.426-15.527 18.75-10.84 7.3243-22.852 7.6172-43.066 0.293-88.184 0.293-4.3945 0-8.789-0.293-4.3946 0.293-8.7891 0.293-62.988 0-98.438-43.359-35.449-43.359-22.559-104.59 13.184-61.523 67.09-104.88 53.906-43.359 116.89-43.359 4.3945 0 8.7891 0.29297 4.3945-0.29297 8.789-0.29297 62.988 0 98.438 43.359 35.449 43.359 22.266 104.88v0.29296q-2.3437 11.426-12.598 19.629-10.254 7.9102-21.973 7.9102h-207.71q4.1015 22.852 21.387 36.621 17.578 14.355 43.066 14.355h96.68q16.406-0.29297 24.023 12.891 7.9102 12.891 0.586 29.004l-0.586 0.58594z"/>
    <path id="path4148" d="m1676.9 712.42q8.4961 0 12.012 6.4453 4.1016 6.4453 0.586 14.355l-13.184 30.176q-10.547 28.418-27.246 25.195-24.609-4.1016-53.32 14.062-25.488 16.113-32.227 32.52-1.1719 2.9297-2.3437 7.0312 0 0 0 0.29297-0.293 0-0.293 0l-26.66 124.51q-3.8085 18.457-19.922 31.641-15.82 13.477-34.57 13.477h-0.8789q-18.75 0-29.297-13.477-10.254-13.184-6.4453-31.641l42.773-200.1q3.8086-18.75 19.922-32.227 16.406-13.184 35.156-13.184h1.4649q25.195 0 38.965 29.59 12.891-14.941 23.73-21.387 28.125-17.285 71.777-17.285z"/>
   </g>
  </g>
 </g>
</svg>
